# xmcd
#
# Track frame offsets:
#	150
#	17904
#	36827
#	56156
#	71386
#	89575
#	111794
#	141906
#	164564
#	196669
#	219207
#	237801
#	257532
#	292256
#
# Disc length: 4088 seconds
#
# Revision: 0
# Processed by: cddbd v1.5.1PL2 Copyright (c) Steve Scherf et al.
# Submitted via: EasyCDDAExtractor 9.0.0.1
#
DISCID=cd0ff60e
DTITLE=Gary Moore - Ballads and blues (1982-1994)
DYEAR=1900
DGENRE=
TTITLE0=Always gonna love you
TTITLE1=Still got the blues
TTITLE2=Empty rooms
TTITLE3=Parisienne walkways
TTITLE4=One day
TTITLE5=Separate ways
TTITLE6=Story of the blues
TTITLE7=Crying in the shadows
TTITLE8=Withe love (remember)
TTITLE9=Midnight blues
TTITLE10=Falling in love withe you
TTITLE11=Jumpin' at shadows
TTITLE12=Blues for Narada
TTITLE13=Johnny Boy
EXTD=
EXTT0=
EXTT1=
EXTT2=
EXTT3=
EXTT4=
EXTT5=
EXTT6=
EXTT7=
EXTT8=
EXTT9=
EXTT10=
EXTT11=
EXTT12=
EXTT13=
PLAYORDER=
